<svg width="17" height="17" viewBox="0 0 17 17" fill="none" xmlns="http://www.w3.org/2000/svg">
<g id="svgexport-8 (11) 1">
<g id="Group">
<path id="Vector" d="M15.3024 1.69735C15.0165 1.4062 14.6528 1.20354 14.2548 1.11357C13.8567 1.0236 13.4412 1.05014 13.0579 1.19001L2.57154 4.49439C2.1396 4.63063 1.7615 4.89939 1.49087 5.26257C1.22023 5.62575 1.07079 6.0649 1.06374 6.51777C1.05668 6.97064 1.19237 7.41424 1.45157 7.78567C1.71076 8.15709 2.0803 8.4375 2.50779 8.58713L2.52532 8.59298L7.01332 9.98698L8.41317 14.4925C8.55673 14.9169 8.83065 15.2851 9.19583 15.5445C9.56102 15.804 9.99882 15.9416 10.4468 15.9375L10.4829 15.937C10.937 15.9344 11.3784 15.7867 11.7424 15.5153C12.1065 15.2439 12.3743 14.8632 12.5064 14.4288L15.8023 3.96526C15.9467 3.5793 15.9763 3.15983 15.8876 2.75742C15.7989 2.35501 15.5957 1.98685 15.3024 1.69735ZM14.7972 3.62314L11.4928 14.1095C11.4274 14.3309 11.2919 14.5252 11.1068 14.6632C10.9217 14.8012 10.6968 14.8755 10.4659 14.875C10.2376 14.8857 10.012 14.8216 9.82344 14.6924C9.63485 14.5633 9.49354 14.3762 9.42095 14.1594L8.0397 9.71126L10.4898 7.26114C10.5866 7.16094 10.6401 7.02674 10.6389 6.88745C10.6377 6.74816 10.5819 6.61492 10.4834 6.51642C10.3849 6.41792 10.2516 6.36205 10.1123 6.36084C9.97303 6.35963 9.83883 6.41318 9.73864 6.50995L7.28851 8.96007L2.84939 7.58148C2.6337 7.50411 2.44773 7.361 2.31771 7.17231C2.1877 6.98362 2.12019 6.75888 2.12471 6.52978C2.12923 6.30068 2.20554 6.07878 2.3429 5.89536C2.48026 5.71195 2.67172 5.57628 2.89029 5.50748L13.4 2.19513C13.5956 2.12017 13.8089 2.10428 14.0135 2.14942C14.218 2.19456 14.4048 2.29875 14.5507 2.44907C14.7029 2.59868 14.8075 2.79001 14.8512 2.99894C14.8948 3.20788 14.8757 3.42507 14.7961 3.62314H14.7972Z" fill="white"/>
</g>
</g>
</svg>
