<svg width="28" height="36" viewBox="0 0 28 36" fill="none" xmlns="http://www.w3.org/2000/svg">
<path d="M18.9141 10.5469C17.5571 10.5469 16.4531 9.4429 16.4531 8.08594V0H3.86719C1.73482 0 0 1.73482 0 3.86719V32.1328C0 34.2652 1.73482 36 3.86719 36H23.5547C25.6871 36 27.4219 34.2652 27.4219 32.1328V10.5469H18.9141ZM5.76562 25.3125H10.8787C11.4612 25.3125 11.9334 25.7847 11.9334 26.3672C11.9334 26.9497 11.4612 27.4219 10.8787 27.4219H5.76562C5.18316 27.4219 4.71094 26.9497 4.71094 26.3672C4.71094 25.7847 5.18316 25.3125 5.76562 25.3125ZM4.71094 20.7422C4.71094 20.1597 5.18316 19.6875 5.76562 19.6875H21.2344C21.8168 19.6875 22.2891 20.1597 22.2891 20.7422C22.2891 21.3247 21.8168 21.7969 21.2344 21.7969H5.76562C5.18316 21.7969 4.71094 21.3247 4.71094 20.7422ZM21.2344 14.0625C21.8168 14.0625 22.2891 14.5347 22.2891 15.1172C22.2891 15.6997 21.8168 16.1719 21.2344 16.1719H5.76562C5.18316 16.1719 4.71094 15.6997 4.71094 15.1172C4.71094 14.5347 5.18316 14.0625 5.76562 14.0625H21.2344Z" fill="#0056B3"/>
<path d="M18.5625 8.08593C18.5625 8.27978 18.7202 8.43749 18.9141 8.43749H26.9518C26.7579 8.07859 26.5084 7.75269 26.2124 7.47196L19.4327 1.05792C19.1727 0.811903 18.8799 0.603084 18.5626 0.437408V8.08593H18.5625Z" fill="#0056B3"/>
</svg>
