<svg width="37" height="37" viewBox="0 0 37 37" fill="none" xmlns="http://www.w3.org/2000/svg">
<path d="M14.164 15.2463H22.8359C23.4352 15.2463 23.9199 14.7616 23.9199 14.1623C23.9199 13.5633 23.4352 13.0784 22.8359 13.0784H14.164C13.5649 13.0784 13.08 13.5633 13.08 14.1623C13.08 14.7616 13.5649 15.2463 14.164 15.2463ZM14.164 19.5823H22.8359C23.4352 19.5823 23.9199 19.0976 23.9199 18.4983C23.9199 17.8992 23.4352 17.4143 22.8359 17.4143H14.164C13.5649 17.4143 13.08 17.8992 13.08 18.4983C13.08 19.0976 13.5649 19.5823 14.164 19.5823ZM14.164 23.9182H22.8359C23.4352 23.9182 23.9199 23.4335 23.9199 22.8342C23.9199 22.2352 23.4352 21.7503 22.8359 21.7503H14.164C13.5649 21.7503 13.08 22.2352 13.08 22.8342C13.08 23.4335 13.5649 23.9182 14.164 23.9182ZM23.9955 7.95681C26.8652 9.45748 29.0595 12.0723 29.9617 15.2463H28.2558C28.0595 15.2463 27.8669 15.2996 27.6985 15.4004C27.5302 15.5013 27.3923 15.646 27.2998 15.8191C27.2074 15.9921 27.1637 16.1869 27.1733 16.3828C27.1828 16.5787 27.2453 16.7683 27.354 16.9316C27.4812 17.1513 31.3943 23.8903 31.1479 23.4657C31.5501 24.069 32.5494 24.069 32.9517 23.4657C33.365 22.7544 36.9599 16.6874 36.8182 16.9316C36.9268 16.7683 36.9892 16.5787 36.9987 16.3828C37.0082 16.1869 36.9645 15.9921 36.8721 15.8191C36.7796 15.646 36.6418 15.5013 36.4735 15.4004C36.3051 15.2996 36.1126 15.2463 35.9163 15.2463H34.4334C33.4446 10.3758 30.2586 6.3322 25.9747 4.10728C26.0461 4.37907 26.0867 4.65997 26.0867 4.94845C26.089 7.26775 24.2132 7.81227 23.9955 7.95681ZM16.9332 0.18006C16.7699 0.0714682 16.5803 0.00911695 16.3844 -0.000374842C16.1886 -0.00986663 15.9938 0.0338553 15.8208 0.12615C15.6477 0.21872 15.503 0.356552 15.4021 0.524937C15.3012 0.693321 15.2479 0.885937 15.248 1.08223V2.56483C9.37132 3.75801 4.65793 8.12526 2.94501 13.7948C3.52429 13.3372 4.2119 13.0795 4.9501 13.0795C5.92171 13.0795 6.80589 13.5088 7.41111 14.2148C8.75338 10.7543 11.6408 8.06181 15.248 7.03657V8.74241C15.2479 8.9387 15.3012 9.13131 15.4021 9.2997C15.503 9.46808 15.6477 9.60591 15.8208 9.69848C15.9938 9.79079 16.1886 9.83451 16.3844 9.82502C16.5803 9.81553 16.7699 9.75317 16.9332 9.64457C17.1529 9.51702 23.8919 5.6039 23.4674 5.85033C24.0709 5.4481 24.0709 4.4488 23.4674 4.04657C22.756 3.63357 16.689 0.0383465 16.9332 0.18006ZM0.127797 23.3455C0.220368 23.5185 0.3582 23.6633 0.526585 23.7641C0.694969 23.865 0.887585 23.9183 1.08387 23.9182H3.18493C4.56449 27.8144 7.4015 30.9915 11.021 32.8783C10.9499 32.6073 10.9137 32.3283 10.9132 32.0481C10.9109 29.7387 12.7717 29.1917 12.9888 29.0477C10.8067 27.905 9.01845 26.1127 7.8924 23.9182H8.74406C8.94034 23.9183 9.13296 23.865 9.30135 23.7641C9.46973 23.6633 9.60756 23.5185 9.70013 23.3455C9.79245 23.1724 9.83616 22.9776 9.82662 22.7817C9.81708 22.5859 9.75464 22.3962 9.64593 22.233C9.51867 22.0133 5.60555 15.2743 5.85198 15.6989C5.44974 15.0956 4.45045 15.0956 4.04822 15.6989C3.76248 16.1908 -0.0517832 22.6355 0.181708 22.233C0.0731162 22.3963 0.0107649 22.5859 0.00127311 22.7818C-0.00821868 22.9777 0.0355033 23.1724 0.127797 23.3455ZM21.7519 28.2542C21.7519 28.0579 21.6987 27.8653 21.5978 27.6969C21.4969 27.5285 21.3522 27.3907 21.1791 27.2981C21.0061 27.2058 20.8113 27.1621 20.6154 27.1716C20.4195 27.1812 20.2299 27.2436 20.0667 27.3523C19.847 27.4796 13.108 31.3927 13.5325 31.1463C12.9293 31.5485 12.9293 32.5478 13.5325 32.95C14.2438 33.363 20.3109 36.9583 20.0667 36.8165C20.2299 36.9252 20.4196 36.9876 20.6155 36.9971C20.8113 37.0066 21.0061 36.9628 21.1791 36.8704C21.3522 36.7779 21.4969 36.6402 21.5978 36.4718C21.6987 36.3035 21.7519 36.1109 21.7519 35.9147V34.4318C26.6223 33.443 30.6655 30.2576 32.8905 25.9738C32.6192 26.0456 32.3384 26.0862 32.0498 26.0862C30.2085 26.0862 29.5112 24.913 29.0045 24.0693C27.4976 26.9026 24.8984 29.0657 21.7519 29.96V28.2542Z" fill="#0056B3"/>
</svg>
