<svg width="37" height="37" viewBox="0 0 37 37" fill="none" xmlns="http://www.w3.org/2000/svg">
<g clip-path="url(#clip0_383_11643)">
<path d="M18.5 37C28.7147 37 37 28.7147 37 18.5C37 8.28534 28.7147 0 18.5 0C8.28534 0 0 8.28534 0 18.5C0 28.7147 8.28534 37 18.5 37ZM17.1785 7.92859C17.1785 7.20177 17.7732 6.60712 18.5 6.60712C19.2268 6.60712 19.8215 7.20177 19.8215 7.92859V17.8657L25.9331 22.755C26.5013 23.2109 26.5938 24.0434 26.1379 24.6116C26.0145 24.7665 25.8577 24.8915 25.6792 24.9774C25.5007 25.0632 25.3052 25.1075 25.1071 25.1071C24.8164 25.1071 24.5257 25.0146 24.2813 24.8164L17.6741 19.5307C17.3636 19.2796 17.1786 18.9031 17.1786 18.5V7.92859H17.1785Z" fill="#0056B3"/>
</g>
<defs>
<clipPath id="clip0_383_11643">
<rect width="37" height="37" fill="white"/>
</clipPath>
</defs>
</svg>
